<?xml version="1.0" encoding="utf-8"?>
<!-- Generator: Adobe Illustrator 27.5.0, SVG Export Plug-In . SVG Version: 6.00 Build 0)  -->
<svg version="1.1" xmlns="http://www.w3.org/2000/svg" xmlns:xlink="http://www.w3.org/1999/xlink" x="0px" y="0px"
	 viewBox="0 0 500 500" style="enable-background:new 0 0 500 500;" xml:space="preserve">
<g id="BACKGROUND">
	<rect style="fill:#FFFFFF;" width="500" height="500"/>
</g>
<g id="OBJECTS">
	<g>
		<path style="fill:#152345;" d="M165.705,234.081c-0.109,3.825,1.543,6.975,3.688,7.036c2.146,0.061,3.973-2.99,4.081-6.815
			c0.109-3.825-1.543-6.975-3.688-7.036C167.641,227.205,165.814,230.256,165.705,234.081z"/>
		<path style="fill:#152345;" d="M219.798,235.615c-0.109,3.825,1.543,6.975,3.689,7.036c2.146,0.061,3.973-2.99,4.081-6.815
			c0.108-3.825-1.543-6.975-3.689-7.036C221.734,228.739,219.907,231.79,219.798,235.615z"/>
		<g>
			<path style="fill:#152345;" d="M181.47,249.603c0.29,0.466,0.603,1.044,1.033,1.627c0.801,1.206,1.994,2.461,3.233,3.536
				c0.654,0.496,1.266,1.024,1.915,1.385c0.628,0.396,1.209,0.75,1.739,0.975c0.52,0.246,0.946,0.454,1.247,0.583
				c0.308,0.108,0.482,0.17,0.482,0.17s0.022,0.008,0.115,0.04c-0.077,2.727-0.237,8.377-0.279,9.867
				c-0.026,1.965,0.616,3.099,1.815,4.775c1.292-1.606,1.997-2.701,2.083-4.665c0.042-1.489,0.203-7.14,0.281-9.867
				c0.094-0.027,0.116-0.033,0.116-0.033s0.177-0.051,0.491-0.142c0.308-0.113,0.745-0.296,1.278-0.512
				c0.542-0.195,1.142-0.515,1.791-0.875c0.668-0.324,1.309-0.816,1.991-1.275c1.298-1.004,2.56-2.188,3.428-3.347
				c0.462-0.558,0.807-1.117,1.123-1.566c0.278-0.472,0.503-0.853,0.652-1.107c0.99-1.923,0.833-3.425,0.024-5.326
				c-1.609,1.279-2.588,1.883-3.433,3.43c-0.439,0.84-2.05,3.249-4.145,4.773c-0.538,0.353-1.029,0.752-1.559,1.002
				c-0.509,0.284-0.977,0.545-1.412,0.697c-0.423,0.174-0.772,0.317-1.014,0.417c-0.254,0.073-0.398,0.114-0.398,0.114
				s-0.096,0.027-0.788,0.227c-0.68-0.238-0.773-0.271-0.773-0.271s-0.141-0.049-0.391-0.136c-0.236-0.113-0.576-0.276-0.989-0.474
				c-0.426-0.176-0.878-0.463-1.37-0.776c-0.515-0.28-0.983-0.705-1.499-1.089c-2.006-1.64-3.478-4.136-3.868-5
				c-0.756-1.593-1.699-2.252-3.233-3.619c-0.915,1.853-1.157,3.344-0.278,5.319C181.016,248.723,181.219,249.116,181.47,249.603z"
				/>
			<path style="fill:#152345;" d="M371.155,378.9c-0.132-0.685-0.251-1.304-0.355-1.844c-0.14-0.536-0.319-0.987-0.436-1.349
				c-0.979-2.672-2.723-4.431-4.566-5.348c-1.189-0.587-2.421-0.922-3.707-1.006c0.055-0.108,0.107-0.209,0.165-0.322
				c0.207-0.507,0.434-1.062,0.676-1.658c0.117-0.299,0.251-0.604,0.363-0.926c0.1-0.327,0.203-0.663,0.308-1.007
				c0.868-2.736,1.425-6.146,1.242-9.439c-0.125-3.301-1.123-6.381-2.112-8.488c-0.258-0.526-0.493-1.005-0.7-1.428
				c-0.221-0.415-0.468-0.743-0.643-1.028c-0.367-0.56-0.574-0.876-0.574-0.876s-0.052-0.079-0.149-0.228
				c-0.1-0.147-0.23-0.377-0.455-0.624c-0.435-0.505-1.036-1.256-1.822-2.114c-1.616-1.647-4.121-3.684-7.165-4.999
				c-3.013-1.38-6.421-2.044-9.273-2.203c-2.862-0.18-5.181,0.075-6.328,0.213c-2.121,0.275-3.729,0.788-5.161,1.49
				c-0.814,0.403-1.578,0.872-2.336,1.418c-0.21-1.145-0.453-2.293-0.722-3.451c-0.348-1.441-0.602-2.924-1.039-4.376
				c-0.408-1.46-0.82-2.933-1.234-4.414c-1.83-5.877-4.188-11.739-6.978-17.192c-2.78-5.459-5.979-10.5-9.24-14.878
				c-6.563-8.753-13.273-14.777-16.672-17.65c-6.315-5.309-11.838-8.746-17.267-11.518c-5.168-2.586-10.29-4.668-16.447-6.26
				c0.141-1.801,0.166-3.611,0.043-5.417c-0.152-2.219-0.494-4.418-0.638-6.639c-0.25-3.847-0.18-7.715,0.224-11.549
				c0.383-3.635,1.317-7.158,1.833-10.77c0.432-3.025,0.647-6.072,0.559-9.128c-0.15-5.197-1.094-10.392-2.842-15.29
				c-1.425-3.994-3.347-7.888-5.751-11.432c2.458-1.038,4.67-2.345,6.665-3.829c2.488-1.856,4.672-3.969,6.685-6.325
				c4.007-4.733,7.416-10.415,10.524-18.084c1.693-4.145,4.7-12.623,6.822-23.295c2.186-10.65,3.56-23.44,3.429-35.715
				c-0.084-12.267-1.716-24.017-4.5-32.4c-1.363-4.194-2.997-7.525-4.377-9.735c-0.708-1.098-1.298-1.94-1.749-2.486
				c-0.217-0.277-0.383-0.49-0.495-0.633c-0.123-0.136-0.186-0.206-0.186-0.206s-0.254-0.28-0.733-0.808
				c-0.228-0.272-0.565-0.57-0.948-0.929c-0.194-0.178-0.403-0.369-0.626-0.573c-0.242-0.187-0.5-0.386-0.773-0.597
				c-0.525-0.443-1.213-0.82-1.927-1.267c-0.767-0.375-1.593-0.794-2.556-1.078c-1.901-0.604-4.205-0.863-6.65-0.443
				c-2.449,0.403-4.931,1.543-7.088,3.185c-2.179,1.63-4.112,3.69-5.85,5.972c-3.471,4.581-6.225,10.026-8.617,15.697
				c-4.76,11.375-8.038,23.743-10.498,34.253c-2.437,10.523-3.971,19.237-4.734,23.587c-1.385,8.038-2.15,14.387-2.657,20.423
				c-0.446,5.457-0.689,10.671-0.779,16.658c-10.831-3.069-22.481-3.429-33.463-0.96c0.248-5.979,0.301-11.194,0.166-16.665
				c-0.164-6.055-0.568-12.437-1.495-20.54c-0.515-4.387-1.553-13.174-3.389-23.818c-1.861-10.632-4.432-23.166-8.539-34.793
				c-2.068-5.798-4.508-11.39-7.714-16.161c-1.606-2.376-3.419-4.543-5.502-6.294c-2.061-1.762-4.474-3.041-6.896-3.582
				c-2.418-0.558-4.732-0.429-6.665,0.065c-0.977,0.229-1.826,0.6-2.613,0.931c-0.738,0.406-1.446,0.744-1.996,1.156
				c-0.284,0.195-0.553,0.379-0.805,0.552c-0.234,0.191-0.453,0.37-0.658,0.536c-0.403,0.337-0.756,0.615-0.999,0.874
				c-0.508,0.5-0.778,0.765-0.778,0.765s-0.067,0.067-0.198,0.196c-0.12,0.136-0.297,0.339-0.53,0.603
				c-0.482,0.52-1.118,1.327-1.887,2.383c-1.504,2.128-3.324,5.362-4.922,9.471c-3.255,8.212-5.55,19.851-6.329,32.093
				c-0.827,12.247-0.18,25.094,1.399,35.851c1.513,10.775,4.035,19.411,5.49,23.645c2.667,7.833,5.749,13.699,9.481,18.652
				c1.877,2.467,3.938,4.699,6.316,6.694c1.914,1.599,4.057,3.034,6.461,4.212c-0.963,1.294-1.855,2.632-2.68,3.958
				c-4.875,7.836-7.482,16.976-7.556,26.2c-0.058,7.133,1.382,14.212,3.781,20.911c-3.233,6.142-4.856,13.652-4.507,20.5
				c0.336,6.603,2.67,12.8,6.825,17.948c2.312,2.864,5.089,5.27,8.135,7.313c-2.562,2.917-4.598,5.71-6.53,8.754
				c-2.222,3.551-4.291,7.488-6.333,12.763c-1.058,2.867-3.216,8.64-4.706,16c-0.814,3.661-1.341,7.731-1.687,11.932
				c-0.331,4.209-0.239,8.566,0.068,12.808c0.771,8.489,3.05,16.395,5.422,21.901c0.526,1.408,1.156,2.622,1.684,3.707
				c0.537,1.08,0.972,2.034,1.384,2.786c0.859,1.485,1.344,2.322,1.344,2.322s0.281,0.483,1.309,2.247
				c0.571,0.845,1.35,1.997,2.401,3.552c0.268,0.384,0.531,0.811,0.853,1.233c0.327,0.418,0.674,0.862,1.041,1.332
				c0.665,0.85,1.409,1.8,2.217,2.833c0.554,1.661,1.574,4.829,2.714,9.039c0.596,2.233,1.227,4.759,1.77,7.502
				c0.492,2.542,0.931,5.321,0.969,8.06c-0.346,0.473-0.642,0.949-0.979,1.432c-0.223,0.359-0.499,0.687-0.677,1.078l-0.563,1.161
				c-0.178,0.393-0.392,0.772-0.539,1.179l-0.397,1.244c-0.122,0.418-0.28,0.828-0.369,1.254l-0.219,1.29
				c-0.554,3.447-0.06,6.981,1.139,9.955c1.186,2.994,3.048,5.411,4.917,7.143c0.494,0.406,0.966,0.794,1.415,1.163
				c0.439,0.383,0.946,0.62,1.374,0.908c0.445,0.263,0.845,0.539,1.244,0.735c0.408,0.179,0.783,0.344,1.12,0.492
				c0.357,0.153,0.708,0.304,1.056,0.453c0.356,0.123,0.72,0.206,1.073,0.307c0.355,0.094,0.705,0.187,1.052,0.278
				c0.345,0.101,0.689,0.175,1.037,0.199c0.69,0.074,1.364,0.147,2.024,0.217c0.652,0.046,1.25,0.042,1.859,0.03
				c2.415-0.041,4.637-0.357,6.733-0.885c3.568-0.911,6.794-2.452,9.866-4.78c0.082,0.193,0.162,0.386,0.253,0.574
				c1.109,2.217,2.821,3.871,4.493,4.91c3.416,2.038,6.338,2.391,8.222,2.7c1.91,0.239,2.908,0.256,2.908,0.256
				s0.287,0.015,0.83,0.045c0.544,0.021,1.351,0.006,2.38,0.008c2.053-0.108,5.124-0.272,8.676-1.862
				c1.751-0.809,3.583-2.088,5.014-3.92c0.078-0.097,0.139-0.209,0.215-0.309c2.417,0.851,4.801,1.426,7.135,1.871
				c3.014,0.566,5.977,0.913,9.024,1.068c3.05,0.175,6.19,0.186,9.579,0.019c3.39-0.16,7.035-0.471,11.089-1.015
				c4.787-0.612,14.748-2.205,25.505-4.813c5.388-1.321,10.944-2.765,16.259-4.642c0.685-0.259,1.308-0.479,2.106-0.876
				c0.827-0.415,1.624-1.111,2.172-1.837c1.112-1.496,1.49-3.079,1.706-4.499c0.201-1.436,0.2-2.784,0.125-4.063
				c-0.063-0.958-0.175-1.845-0.322-2.739c1.446-1.835,2.743-3.68,3.906-5.516c3.091,0.924,5.736,1.384,9.836,1.221
				c1.333-0.047,4.002-0.216,7.249-0.555c3.246-0.356,7.067-0.933,10.682-1.755c3.617-0.807,7.025-1.836,9.489-2.768
				c1.221-0.439,2.276-0.919,2.987-1.238c0.698-0.36,1.092-0.563,1.092-0.563s0.403-0.186,1.07-0.603
				c0.682-0.39,1.631-1.006,2.727-1.832c2.182-1.656,4.872-4.318,6.866-7.694c0.992-1.684,1.821-3.514,2.431-5.363
				c0.605-1.853,0.945-3.721,1.134-5.448c0.043-0.875,0.107-1.707,0.115-2.496C371.256,380.328,371.22,379.581,371.155,378.9z
				 M278.802,134.854c-2.069,10.419-4.979,18.629-6.593,22.625c-2.969,7.401-5.888,12.921-9.176,17.796
				c-1.657,2.428-3.426,4.69-5.498,6.819c-1.673,1.709-3.564,3.33-5.784,4.779c-1.107-1.604-2.308-3.137-3.62-4.564
				c1.323-3.586,2.198-7.847,1.267-11.526c-0.739-2.921-3.056-5.065-6.091-5.35c-1.322-0.124-2.583,0.179-3.756,0.719
				c1.391-5.684,2.319-10.188,3.086-17.527c0.471-4.525,1.954-18.123,3.946-30.479c0.979-6.18,2.069-12.047,2.975-16.349
				c0.902-4.304,1.579-7.052,1.579-7.052s0.326-1.3,0.876-3.492c0.578-2.181,1.409-5.247,2.56-8.709
				c1.16-3.45,2.603-7.345,4.568-10.937c0.983-1.783,2.092-3.512,3.385-4.877c0.633-0.707,1.331-1.258,2.02-1.739
				c0.707-0.425,1.416-0.714,2.115-0.856l0.207-0.047c0.009,0.002-0.012,0.003,0.02-0.001l0.108-0.015
				c0.073-0.01,0.139-0.027,0.23-0.026c0.173,0.001,0.332-0.036,0.513-0.014l0.529,0.029l0.529,0.098
				c0.7,0.137,1.377,0.395,1.999,0.736c0.325,0.132,0.614,0.348,0.899,0.556c0.279,0.217,0.588,0.366,0.833,0.62
				c0.254,0.24,0.502,0.475,0.744,0.705l0.362,0.337c0.105,0.131,0.21,0.26,0.312,0.387c0.4,0.522,0.823,0.97,1.15,1.466
				c0.317,0.508,0.612,0.982,0.885,1.42c0.291,0.422,0.5,0.858,0.684,1.253c0.19,0.391,0.358,0.738,0.504,1.038
				c1.647,3.616,2.657,6.677,3.644,9.591c0.037,0.123,0.084,0.242,0.123,0.365c0.752,5.374,1.182,11.274,1.219,17.321
				C282.28,111.931,280.932,124.464,278.802,134.854z M223.95,152.274c1.153-5.917,2.26-12.169,3.664-20.143
				c0.772-4.314,2.305-12.964,4.718-23.371c2.431-10.386,5.681-22.608,10.29-33.62c2.306-5.484,4.961-10.686,8.116-14.845
				c3.116-4.15,6.912-7.163,10.491-7.678c1.769-0.304,3.438-0.117,4.8,0.315c0.692,0.197,1.296,0.514,1.862,0.78
				c0.532,0.348,1.049,0.61,1.458,0.964c0.212,0.162,0.412,0.315,0.601,0.459c0.177,0.163,0.343,0.316,0.497,0.459
				c0.306,0.288,0.577,0.518,0.765,0.747c0.395,0.434,0.604,0.664,0.604,0.664s0.053,0.057,0.154,0.169
				c0.094,0.121,0.233,0.301,0.416,0.537c0.379,0.455,0.884,1.182,1.503,2.138c0.664,1.066,1.414,2.47,2.168,4.163
				c-0.005-0.005-0.011-0.01-0.016-0.015c-0.319-0.301-0.646-0.609-0.98-0.924c-0.324-0.322-0.757-0.568-1.146-0.86
				c-0.398-0.286-0.805-0.575-1.287-0.791c-0.911-0.494-1.942-0.894-3.068-1.116c-0.283-0.049-0.569-0.099-0.856-0.149
				c-0.296-0.017-0.595-0.035-0.895-0.053c-0.297-0.025-0.619,0.017-0.93,0.028c-0.152,0.004-0.325,0.033-0.494,0.058
				c-0.159,0.024-0.332,0.048-0.593,0.118L266,60.262c-1.283,0.241-2.488,0.753-3.564,1.414c-1.029,0.697-1.983,1.487-2.778,2.369
				c-1.638,1.743-2.87,3.705-3.959,5.674c-2.155,3.954-3.638,8.01-4.842,11.591c-1.188,3.588-2.034,6.725-2.622,8.956
				c-0.558,2.236-0.889,3.563-0.889,3.563s-0.694,2.801-1.614,7.165c-0.924,4.364-2.032,10.297-3.025,16.532
				c-2.019,12.468-3.509,26.142-3.95,30.697c-0.738,7.587-0.599,12.28-0.017,18.345c-1.101,0.634-2.108,1.458-2.974,2.344
				c-0.062,0.064-0.12,0.134-0.182,0.199c-0.202-1.781-0.728-3.725-2.443-4.454c-3.489-1.482-5.41,2.843-6.295,6.105
				c-2.019-0.807-4.079-1.513-6.172-2.118C221.856,162.738,222.88,157.619,223.95,152.274z M231.521,168.103
				C231.55,168.248,231.53,168.168,231.521,168.103L231.521,168.103z M231.503,168.013c-0.037-0.018-0.055-0.034-0.02-0.04
				C231.473,167.975,231.461,167.817,231.503,168.013z M232.027,168.165c0.127,0.048,0.115,0.048,0.055,0.031
				C232.083,168.189,232.071,168.181,232.027,168.165z M139.564,56.039c0.672-0.919,1.217-1.616,1.621-2.049
				c0.196-0.225,0.345-0.396,0.446-0.512c0.108-0.106,0.164-0.16,0.164-0.16s0.222-0.218,0.641-0.629
				c0.201-0.218,0.484-0.433,0.807-0.703c0.162-0.133,0.336-0.277,0.522-0.43c0.196-0.133,0.405-0.275,0.626-0.424
				c0.428-0.33,0.959-0.562,1.51-0.88c0.581-0.233,1.201-0.515,1.904-0.673c1.384-0.354,3.062-0.446,4.811-0.042
				c3.544,0.717,7.163,3.94,10.039,8.26c2.914,4.331,5.27,9.675,7.262,15.281c3.977,11.256,6.529,23.642,8.368,34.149
				c1.82,10.528,2.859,19.25,3.386,23.601c0.95,8.04,1.701,14.345,2.517,20.318c0.764,5.394,1.496,10.559,2.34,16.518
				c-2.106,0.486-4.186,1.076-6.23,1.772c-0.691-3.349-2.259-7.58-5.798-6.502c-1.817,0.554-2.482,2.484-2.797,4.279
				c-0.91-1.059-1.942-1.997-3.081-2.704c0.918-5.989,1.318-10.659,1.012-18.245c-0.183-4.573-0.895-18.31-2.204-30.872
				c-0.637-6.281-1.407-12.268-2.082-16.677c-0.671-4.41-1.205-7.245-1.205-7.245s-0.255-1.343-0.686-3.608
				c-0.461-2.261-1.128-5.441-2.111-9.09c-0.999-3.644-2.25-7.777-4.177-11.847c-0.975-2.027-2.095-4.056-3.631-5.889
				c-0.744-0.925-1.651-1.769-2.639-2.523c-1.036-0.721-2.21-1.301-3.477-1.614l0.203,0.058c-0.256-0.084-0.428-0.119-0.585-0.151
				c-0.167-0.035-0.338-0.073-0.49-0.086c-0.31-0.029-0.629-0.089-0.927-0.081c-0.301,0.001-0.6,0.001-0.897,0.002
				c-0.29,0.034-0.577,0.067-0.863,0.101c-1.137,0.158-2.189,0.499-3.126,0.94c-0.493,0.188-0.916,0.454-1.33,0.717
				c-0.405,0.27-0.851,0.491-1.193,0.794c-0.351,0.295-0.695,0.584-1.031,0.866c-0.006,0.005-0.011,0.009-0.017,0.014
				C138.012,58.425,138.84,57.065,139.564,56.039z M175.137,166.48c-0.004-0.012,0.024,0.019,0.062,0.062
				C175.111,166.567,175.166,166.567,175.137,166.48z M148.963,179.014c-1.948-2.243-3.587-4.601-5.103-7.12
				c-3.006-5.053-5.607-10.73-8.152-18.288c-1.384-4.081-3.824-12.443-5.299-22.962c-1.538-10.494-2.174-23.083-1.37-35.033
				c0.38-6.036,1.143-11.904,2.199-17.227c0.046-0.119,0.098-0.235,0.142-0.354c1.15-2.854,2.333-5.853,4.182-9.369
				c0.163-0.292,0.35-0.629,0.562-1.008c0.206-0.384,0.439-0.807,0.753-1.213c0.297-0.421,0.619-0.878,0.964-1.367
				c0.355-0.477,0.803-0.9,1.232-1.398l0.334-0.369l0.381-0.316c0.255-0.215,0.516-0.436,0.782-0.661
				c0.26-0.24,0.576-0.371,0.867-0.572c0.296-0.191,0.597-0.39,0.929-0.504c0.641-0.305,1.331-0.524,2.038-0.621l0.534-0.068
				l0.53,0.001c0.182-0.012,0.339,0.034,0.512,0.043c0.091,0.004,0.156,0.025,0.228,0.039l0.108,0.021
				c0.031,0.006,0.01,0.004,0.02,0.002l0.204,0.059c0.689,0.181,1.381,0.51,2.063,0.974c0.661,0.52,1.327,1.109,1.918,1.851
				c1.214,1.436,2.223,3.225,3.103,5.061c1.758,3.697,2.978,7.668,3.94,11.178c0.953,3.522,1.609,6.63,2.062,8.84
				c0.425,2.219,0.677,3.536,0.677,3.536s0.52,2.782,1.177,7.13c0.661,4.347,1.416,10.266,2.043,16.491
				c1.289,12.449,1.999,26.109,2.212,30.654c0.349,7.346,1.016,11.889,2.077,17.615c-0.853-0.425-1.757-0.722-2.714-0.829
				c-2.872-0.323-5.664,1.255-6.871,3.874c-1.214,2.634-1.101,5.639-0.704,8.446c0.199,1.408,0.482,2.819,0.875,4.193
				c-1.423,1.317-2.723,2.813-3.913,4.387C152.343,182.55,150.54,180.82,148.963,179.014z M149.058,265.001
				c-1.279-3.04-1.953-6.568-2.033-9.904c-0.039-1.638,0.043-3.278,0.23-4.905c0.022-0.188,0.045-0.377,0.069-0.565
				c0,0.004-0.021,0.123,0.033-0.218c0.062-0.39,0.122-0.779,0.192-1.168c0.129-0.722,0.278-1.44,0.445-2.153
				c0.552-2.363,1.317-4.657,2.222-6.906c0.018-0.043,0.026-0.066,0.035-0.089c0.015-0.033,0.033-0.074,0.061-0.136
				c0.083-0.188,0.165-0.376,0.25-0.563c0.135-0.298,0.273-0.594,0.417-0.887c0.15-0.306,0.32-0.604,0.466-0.911
				c0.577-1.208-0.125-2.359-0.519-3.524c-0.658-1.948-1.228-3.926-1.699-5.928c-0.802-3.414-1.296-6.886-1.416-10.392
				c-0.198-5.781,0.616-11.526,2.486-17.002c1.413-4.136,3.441-8.052,5.943-11.634c0.981-1.405,1.542-2.134,2.71-3.476
				c0.674-0.775,1.375-1.528,2.113-2.242c0.261-0.252,0.524-0.505,0.801-0.74c0.477-0.404,0.68-1.24,0.482-1.824
				c-1.003-2.963-1.771-6.505-1.219-9.534c0.331-1.817,1.198-3.352,3.26-3.376c1.917-0.022,3.7,1.822,4.866,3.305
				c0.918,1.167,1.735,2.488,2.368,3.839c0.792,1.692,3.582,0.851,3.494-0.946c-0.05-1.026-0.038-2.059,0.018-3.084
				c0.045-0.82,0.105-1.535,0.263-2.276c0.049-0.232,0.107-0.464,0.174-0.694c0.315,0.554,0.518,1.139,0.704,1.764
				c0.223,0.753,0.396,1.522,0.537,2.294c0.052,0.285,0.094,0.571,0.142,0.857c0.045,0.268,0.034,0.175,0.017,0.056
				c0.178,1.057,1.13,2.164,2.351,1.702c15.244-5.765,32.996-5.424,47.921,1.211c0.995,0.442,2.523,0.189,2.754-1.121
				c0.199-1.124,0.492-2.242,0.863-3.32c0.222-0.645,0.507-1.248,0.858-1.828c0.055,0.223,0.101,0.449,0.136,0.674
				c0.087,0.566,0.121,1.554,0.123,2.285c0.002,1.065-0.044,2.135-0.157,3.195c-0.2,1.884,2.653,2.505,3.494,0.946
				c1.365-2.531,3.847-6.139,6.903-6.605c4.747-0.725,3.906,6.035,3.216,8.959c-0.329,1.395-0.737,2.79-1.273,4.121
				c-0.061,0.15-0.082,0.305-0.088,0.459c-0.003,0.047,0.002,0.095,0.003,0.142c0.003,0.045-0.001,0.09,0.006,0.135
				c0.038,0.374,0.205,0.751,0.561,1.088c0.359,0.341,0.694,0.709,1.025,1.077c0.403,0.45,0.794,0.911,1.174,1.381
				c0.499,0.617,0.629,0.784,1.226,1.616c2.661,3.709,4.794,7.806,6.263,12.128c2.129,6.262,2.872,12.869,2.296,19.454
				c-0.372,4.255-1.514,8.382-2.051,12.615c-0.587,4.623-0.686,9.303-0.323,13.949c0.326,4.164,0.894,8.134,0.427,12.316
				c-0.044,0.397-0.05,0.432-0.145,1.008c-0.084,0.509-0.18,1.016-0.289,1.521c-0.203,0.937-0.449,1.865-0.741,2.779
				c-0.614,1.925-1.308,3.487-2.363,5.29c-5.852,10.008-17.426,14.888-28.275,17.427c-17.033,3.987-35.445,3.043-51.849-3.142
				C161.866,280.047,152.948,274.252,149.058,265.001z M308.135,413.966l-0.585,0.719l0.184,0.949
				c0.363,1.874,0.589,4.228,0.299,6.346c-0.145,1.055-0.464,2.066-0.953,2.692c-0.259,0.315-0.479,0.527-0.851,0.72
				c-0.405,0.204-1.056,0.456-1.648,0.674c-4.979,1.76-10.547,3.219-15.824,4.51c-10.602,2.573-20.413,4.15-25.104,4.767
				c-3.978,0.549-7.531,0.947-10.829,1.274c-3.299,0.334-6.344,0.572-9.312,0.725c-2.97,0.173-5.861,0.234-8.85,0.152
				c-2.271-0.071-4.61-0.212-7.061-0.594c1.187-1.692,2.01-3.713,2.411-5.819c0.475-2.397,0.458-4.886,0.157-7.361
				c-0.157-1.244-0.385-2.468-0.73-3.741c-0.114-0.374-0.149-0.578-0.214-0.844l-0.182-0.764c-0.13-0.506-0.163-1.083-0.252-1.623
				c-0.212-1.928-0.259-3.952-0.178-5.996c0.563,0.091,1.1,0.156,1.64,0.182c1.127,0.062,2.254-0.085,3.683-0.313
				c0.772-0.131,2.307-0.452,4.189-0.774c0.946-0.129,1.977-0.269,3.039-0.413c0.531-0.072,1.069-0.146,1.608-0.219
				c0.542-0.045,1.085-0.09,1.622-0.135c1.074-0.09,2.123-0.178,3.093-0.259c0.972-0.033,1.865-0.063,2.624-0.088
				c0.758-0.026,1.383-0.047,1.817-0.062c0.434,0.006,0.679,0.01,0.679,0.01s0.979,0.017,2.496,0.044
				c0.759-0.003,1.65,0.055,2.621,0.12c0.969,0.075,2.023,0.094,3.09,0.231c4.29,0.375,8.899,1.266,10.403,1.642
				c2.803,0.639,4.502,0.41,7.24,0.086c-1.891-2.021-3.428-3.157-6.362-3.886c-1.587-0.431-6.427-1.366-10.913-1.75
				c-1.118-0.139-2.218-0.159-3.231-0.234c-1.014-0.065-1.945-0.121-2.738-0.117c-0.231-0.003-0.446-0.006-0.652-0.009
				c-0.044-1.049-0.115-2.022-0.228-3.001c-0.071-0.781-0.183-1.565-0.351-2.398c-0.188-0.836-0.386-1.72-0.609-2.711
				c-0.132-0.536-0.331-1.339-0.578-2.336c-0.194-1.006-0.425-2.207-0.678-3.527c-0.379-2.654-0.787-5.8-0.776-8.82
				c-0.071-1.51,0.059-2.98,0.089-4.341c0.136-1.353,0.213-2.603,0.378-3.65c0.167-1.047,0.279-1.913,0.396-2.509
				c0.125-0.594,0.195-0.929,0.195-0.929s0.071-0.335,0.198-0.928c0.106-0.599,0.355-1.435,0.626-2.46
				c0.57-2.04,1.472-4.776,2.746-7.507c1.247-2.741,2.821-5.48,4.321-7.691c1.495-2.216,2.886-3.915,3.584-4.757
				c1.301-1.547,2.265-2.807,3.119-4.098c0.863-1.285,1.595-2.603,2.61-4.153c-1.776,0.562-3.223,1.226-4.6,2.097
				c-1.373,0.88-2.684,1.992-4.103,3.631c-0.762,0.892-2.26,2.707-3.865,5.081c-1.611,2.368-3.299,5.311-4.637,8.26
				c-1.366,2.938-2.333,5.887-2.941,8.085c-0.291,1.103-0.553,2.006-0.668,2.65c-0.134,0.639-0.21,1-0.21,1s-0.077,0.36-0.212,0.999
				c-0.127,0.641-0.253,1.571-0.433,2.697c-0.179,1.127-0.268,2.468-0.414,3.922c-0.04,1.459-0.176,3.039-0.105,4.653
				c-0.013,3.236,0.415,6.587,0.825,9.408c0.272,1.398,0.52,2.671,0.728,3.737c0.268,1.051,0.484,1.898,0.628,2.463
				c0.135,0.521,0.273,1.01,0.415,1.474c0.162,0.458,0.334,0.888,0.507,1.299c0.346,0.822,0.709,1.564,1.101,2.268
				c0.422,0.719,0.895,1.393,1.413,2.071c-0.273-0.004-0.424-0.006-0.424-0.006s-0.255-0.004-0.709-0.012
				c-0.453,0.014-1.104,0.033-1.895,0.057c-0.791,0.025-1.723,0.053-2.738,0.085c-1.012,0.082-2.106,0.171-3.225,0.262
				c-0.56,0.046-1.126,0.093-1.691,0.139c-0.562,0.076-1.123,0.151-1.677,0.225c-1.106,0.151-2.181,0.298-3.167,0.433
				c-1.961,0.338-3.558,0.679-4.358,0.833c-1.482,0.27-2.579,0.772-3.58,1.355c-0.284,0.168-0.559,0.35-0.831,0.54
				c0.134-1.992,0.33-3.987,0.594-5.957c0.625-4.679,1.486-9.217,2.366-13.364c1.772-8.297,3.601-15.042,4.502-18.409
				c1.693-6.213,2.956-11.105,4.053-15.78c1.101-4.674,2.015-9.134,3.169-14.449c-2.333,4.916-4.169,9.104-5.904,13.607
				c-1.732,4.505-3.344,9.335-5.081,15.595c-0.925,3.394-2.778,10.193-4.581,18.619c-0.895,4.215-1.775,8.837-2.419,13.667
				c-0.323,2.414-0.575,4.884-0.706,7.387c-0.145,2.499-0.119,5.046,0.166,7.614c0.104,0.649,0.145,1.281,0.305,1.938l0.234,0.98
				c0.077,0.314,0.164,0.693,0.226,0.887c0.278,1.021,0.487,2.118,0.62,3.181c0.262,2.135,0.265,4.242-0.113,6.125
				c-0.685,3.832-3.022,6.439-5.708,7.618c-0.433,0.196-0.864,0.358-1.293,0.505c0.386-0.857,0.876-2.057,1.231-3.243
				c0.127-0.452,0.252-0.894,0.367-1.302c0.091-0.417,0.174-0.799,0.245-1.124c0.15-0.647,0.195-1.079,0.195-1.079
				s0.062-0.428,0.158-1.09c0.066-0.667,0.146-1.579,0.137-2.54c-0.016-0.482-0.033-0.974-0.049-1.453
				c-0.046-0.478-0.12-0.942-0.176-1.367c-0.086-0.856-0.321-1.532-0.399-1.875c-0.087-0.314-0.204-0.584-0.354-0.817
				c-0.167-0.228-0.379-0.417-0.615-0.583c-0.474-0.331-1.078-0.564-1.819-0.767c-0.397,0.71-0.71,1.242-0.879,1.722
				c-0.086,0.24-0.128,0.465-0.142,0.694c-0.032,0.235-0.024,0.471,0.031,0.723c0.044,0.276,0.235,0.805,0.293,1.49
				c0.041,0.339,0.103,0.707,0.143,1.089c0.014,0.386,0.028,0.783,0.041,1.172c0.012,0.777-0.049,1.528-0.097,2.079
				c-0.075,0.552-0.124,0.908-0.124,0.908s-0.037,0.357-0.172,0.904c-0.061,0.274-0.133,0.596-0.212,0.948
				c-0.101,0.348-0.209,0.724-0.32,1.109c-0.469,1.539-1.211,3.146-1.458,3.676c-0.25,0.537-0.268,1.027-0.155,1.601
				c-0.628,0.063-1.212,0.099-1.721,0.123c-0.917-0.005-1.631,0.013-2.121-0.006c-0.491-0.026-0.751-0.041-0.751-0.041
				s-0.916-0.018-2.598-0.229c-0.571-0.087-1.254-0.194-2.002-0.356c0.088-0.466,0.068-0.891-0.119-1.361
				c-0.217-0.543-0.867-2.19-1.248-3.753c-0.089-0.391-0.176-0.772-0.257-1.125c-0.059-0.355-0.112-0.681-0.158-0.958
				c-0.104-0.554-0.12-0.912-0.12-0.912s-0.028-0.358-0.072-0.914c-0.017-0.553-0.035-1.306,0.02-2.081
				c0.036-0.387,0.072-0.783,0.107-1.167c0.061-0.379,0.144-0.742,0.204-1.079c0.096-0.681,0.317-1.198,0.377-1.471
				c0.069-0.248,0.091-0.483,0.072-0.72c-0.001-0.229-0.03-0.456-0.103-0.701c-0.141-0.489-0.424-1.038-0.779-1.769
				c-0.752,0.16-1.367,0.359-1.86,0.662c-0.245,0.152-0.467,0.329-0.647,0.547c-0.162,0.225-0.295,0.487-0.4,0.796
				c-0.098,0.338-0.371,1-0.505,1.849c-0.08,0.422-0.18,0.88-0.253,1.355c-0.043,0.477-0.088,0.968-0.131,1.448
				c-0.063,0.958-0.036,1.874-0.007,2.543c0.058,0.667,0.095,1.097,0.095,1.097s0.02,0.434,0.133,1.089
				c0.052,0.328,0.114,0.715,0.18,1.136c0.092,0.414,0.191,0.863,0.293,1.321c0.208,0.872,0.487,1.756,0.754,2.513
				c-0.078-0.045-0.156-0.082-0.234-0.129c-1.212-0.764-2.311-1.849-3.07-3.338c-0.363-0.756-0.636-1.611-0.822-2.55
				c-0.167-0.948-0.23-1.979-0.21-3.067c0.064-2.185,0.488-4.589,1.164-7.122c0.663-2.541,1.578-5.195,2.536-8.071l0.149-0.447
				l-0.077-0.489c-1.067-6.788-2.039-16.078-2.46-24.528c-0.466-8.464-0.306-16.116-0.154-19.803
				c0.342-6.377,0.617-11.375,1.156-16.083c0.133-1.177,0.203-2.356,0.358-3.517c0.17-1.159,0.341-2.322,0.515-3.506
				c0.082-0.595,0.164-1.196,0.248-1.804c0.128-0.596,0.257-1.2,0.388-1.813c0.265-1.236,0.537-2.51,0.822-3.839
				c-0.575,1.236-1.126,2.422-1.661,3.572c-0.263,0.582-0.538,1.154-0.78,1.729c-0.208,0.586-0.413,1.165-0.616,1.739
				c-0.398,1.163-0.79,2.305-1.179,3.443c-0.359,1.152-0.614,2.323-0.915,3.507c-1.211,4.739-1.853,9.863-2.233,16.396
				c-0.173,3.774-0.344,11.586,0.128,20.182c0.124,2.492,0.299,5.043,0.504,7.582c-0.185-0.07-0.376-0.146-0.557-0.213
				c-0.403-0.148-0.797-0.287-1.189-0.415c-0.392-0.157-0.776-0.312-1.159-0.465c-0.775-0.299-1.575-0.537-2.433-0.791
				c-0.843-0.313-1.755-0.603-2.791-0.88c-1.094-0.374-3.297-1.117-5.789-2.432c-2.456-1.372-5.155-3.337-7.386-5.625
				c-2.268-2.255-3.97-4.845-5.18-6.763c-0.558-0.994-1.049-1.794-1.342-2.38c-0.29-0.588-0.453-0.919-0.453-0.919
				s-0.687-1.307-1.548-3.442c-0.85-2.135-1.91-5.084-2.687-8.287c-1.652-6.384-2.313-13.621-2.443-16.019
				c-0.275-4.44-0.974-6.922-2.022-10.762c-1.442,3.723-2.097,6.399-1.871,11.007c0.104,2.494,0.783,10.01,2.532,16.738
				c0.824,3.371,1.953,6.512,2.87,8.795c0.926,2.284,1.674,3.7,1.674,3.7s0.176,0.358,0.488,0.994
				c0.317,0.634,0.846,1.51,1.454,2.592c1.316,2.103,3.184,4.95,5.718,7.484c2.491,2.564,5.542,4.796,8.321,6.336
				c2.815,1.487,5.29,2.31,6.52,2.709c1.157,0.298,2.2,0.522,3.171,0.685c0.981,0.103,1.897,0.104,2.78,0.088
				c0.442-0.013,0.877-0.031,1.311-0.068c0.436-0.069,0.872-0.148,1.311-0.237c0.265-0.053,0.536-0.116,0.806-0.176
				c0.481,5.602,1.125,11.069,1.83,15.629c-1.844,5.479-3.598,10.759-3.742,15.885c-0.025,1.315,0.05,2.613,0.275,3.872
				c0.169,0.869,0.409,1.713,0.715,2.518c-3.531,1.456-6.785,2.134-10.158,2.448c-1.971,0.173-3.994,0.217-6.18,0.089
				c-0.24-0.013-0.488-0.029-0.736-0.047c0.162-0.502,0.203-0.963,0.069-1.501c-0.151-0.582-0.574-2.363-0.606-3.984
				c0.005-0.401,0.011-0.794,0.016-1.156c0.018-0.36,0.078-0.68,0.103-0.958c0.041-0.56,0.154-0.894,0.154-0.894
				s0.086-0.342,0.22-0.873c0.078-0.261,0.221-0.546,0.343-0.87c0.064-0.161,0.13-0.329,0.198-0.5
				c0.084-0.164,0.191-0.321,0.286-0.486c0.685-1.376,1.992-2.517,2.416-2.896c0.359-0.386,0.627-0.736,0.792-1.235
				c0.166-0.499,0.245-1.127,0.371-1.952c-0.736-0.262-1.379-0.417-1.979-0.416c-0.6,0.003-1.174,0.137-1.697,0.62
				c-0.274,0.267-0.904,0.705-1.515,1.424c-0.3,0.366-0.627,0.764-0.963,1.174c-0.332,0.413-0.572,0.917-0.854,1.372
				c-0.132,0.234-0.274,0.459-0.388,0.69c-0.097,0.239-0.191,0.473-0.282,0.697c-0.173,0.451-0.356,0.859-0.462,1.218
				c-0.179,0.725-0.295,1.194-0.295,1.194s-0.148,0.465-0.218,1.199c-0.041,0.366-0.115,0.799-0.142,1.267
				c-0.009,0.467-0.018,0.973-0.028,1.49c0.032,1.931,0.482,3.914,0.718,4.735c-0.151-0.045-0.301-0.089-0.455-0.134
				c-0.279-0.086-0.569-0.15-0.85-0.251c-0.273-0.123-0.549-0.247-0.829-0.373c-0.267-0.116-0.563-0.246-0.885-0.387
				c-0.048-0.023-0.096-0.057-0.144-0.083c-0.039-0.387-0.151-0.742-0.379-1.108c-0.323-0.507-1.273-2.071-1.802-3.605
				c-0.118-0.384-0.234-0.759-0.341-1.105c-0.094-0.348-0.135-0.671-0.196-0.943c-0.133-0.545-0.129-0.898-0.129-0.898
				s-0.023-0.352-0.059-0.898c-0.006-0.272,0.042-0.587,0.059-0.933c0.011-0.173,0.023-0.353,0.035-0.537
				c0.029-0.182,0.083-0.364,0.123-0.55c0.228-1.52,1.121-3.007,1.408-3.499c0.223-0.478,0.37-0.893,0.373-1.419
				c0.004-0.526-0.113-1.148-0.247-1.971c-0.781-0.023-1.441,0.027-2.011,0.213c-0.57,0.187-1.075,0.491-1.424,1.112
				c-0.178,0.338-0.643,0.949-1.004,1.821c-0.173,0.44-0.361,0.92-0.555,1.413c-0.189,0.495-0.262,1.048-0.39,1.568
				c-0.054,0.263-0.119,0.521-0.157,0.776c-0.019,0.258-0.037,0.509-0.054,0.75c-0.026,0.482-0.074,0.927-0.064,1.301
				c0.038,0.538,0.065,0.93,0.078,1.111c-0.066-0.151-0.147-0.288-0.208-0.443c-0.956-2.376-1.342-5.183-0.905-7.893l0.166-1.017
				c0.069-0.336,0.202-0.656,0.297-0.985l0.306-0.981c0.114-0.322,0.292-0.619,0.432-0.929l0.44-0.92
				c0.134-0.312,0.368-0.57,0.544-0.857c0.382-0.542,0.739-1.166,1.126-1.594l0.49-0.542l0.006-0.707
				c0.029-3.536-0.514-6.654-1.064-9.535c-0.571-2.871-1.222-5.47-1.836-7.762c-1.245-4.584-2.34-7.923-2.902-9.589l-0.102-0.303
				l-0.248-0.317c-0.871-1.113-1.653-2.113-2.356-3.011c-0.352-0.449-0.683-0.872-0.996-1.271c-0.308-0.403-0.556-0.809-0.812-1.175
				c-1.002-1.479-1.744-2.576-2.288-3.38c-0.976-1.676-1.243-2.135-1.243-2.135s-0.46-0.795-1.276-2.205
				c-0.391-0.714-0.799-1.619-1.308-2.643c-0.499-1.029-1.099-2.179-1.592-3.513c-2.241-5.216-4.387-12.685-5.119-20.735
				c-0.286-4.026-0.376-8.166-0.059-12.182c0.333-4.009,0.833-7.901,1.614-11.416c1.425-7.062,3.501-12.64,4.507-15.414
				c1.945-5.105,3.626-9.052,5.221-12.818c1.395-3.234,2.7-6.353,4.415-9.809c4.608,3.015,9.807,5.215,14.97,6.866
				c13.998,4.477,29.035,5.475,43.532,3.183c10.794-1.707,22-5.12,30.42-12.379c5.437-4.687,9.221-11.1,10.477-18.183
				c0.2-1.129,0.331-2.268,0.426-3.408c5.72,2.664,10.307,5.495,15.034,8.541c4.97,3.266,10.097,6.867,16.173,12.013
				c3.271,2.786,9.736,8.604,16.049,17.028c3.136,4.215,6.213,9.063,8.887,14.315c2.684,5.247,4.956,10.889,6.724,16.555
				c0.4,1.429,0.797,2.85,1.191,4.259c0.424,1.401,0.667,2.835,1.005,4.227c0.325,1.396,0.63,2.776,0.853,4.15
				c0.123,0.684,0.245,1.363,0.366,2.036c0.097,0.677,0.192,1.347,0.287,2.011c0.757,5.31,1.034,10.236,1.062,14.415
				c-0.008,1.045-0.016,2.044-0.024,2.991c-0.04,0.947-0.078,1.842-0.114,2.682c-0.05,1.681-0.219,3.131-0.307,4.324
				c-0.082,1.194-0.227,2.119-0.298,2.751c-0.078,0.631-0.119,0.966-0.119,0.966s-0.112,1.113-0.477,3.216
				c-0.086,0.526-0.182,1.116-0.288,1.766c-0.131,0.646-0.273,1.352-0.428,2.117c-0.284,1.537-0.73,3.283-1.215,5.255
				c-1.049,3.921-2.548,8.678-4.853,13.983C315.733,402.488,312.668,408.395,308.135,413.966z M367.281,383.24
				c-0.164,1.459-0.449,3.049-0.963,4.622c-0.519,1.57-1.223,3.129-2.066,4.567c-1.698,2.883-4,5.17-5.869,6.595
				c-0.94,0.71-1.752,1.242-2.339,1.577c-0.571,0.362-0.918,0.52-0.918,0.52s-0.338,0.174-0.939,0.483
				c-0.623,0.273-1.478,0.669-2.66,1.093c-2.31,0.869-5.536,1.838-8.988,2.604c-3.449,0.781-7.125,1.335-10.258,1.681
				c-3.136,0.33-5.722,0.503-7.017,0.564c-3.625,0.189-6.055,0.615-8.801,1.316c2.097-3.487,3.763-6.914,5.146-10.112
				c2.397-5.524,3.954-10.474,5.042-14.552c0.504-2.05,0.966-3.867,1.261-5.464c0.16-0.796,0.308-1.53,0.443-2.201
				c0.11-0.676,0.21-1.288,0.299-1.835c0.378-2.185,0.494-3.341,0.494-3.341s0.043-0.347,0.124-1.003
				c0.074-0.656,0.223-1.617,0.311-2.857c0.093-1.238,0.268-2.744,0.322-4.488c0.037-0.871,0.077-1.801,0.119-2.784
				c0.009-0.983,0.017-2.02,0.027-3.104c-0.025-4.336-0.31-9.445-1.092-14.949c-0.098-0.688-0.197-1.383-0.297-2.084
				c-0.094-0.526-0.19-1.059-0.285-1.592c0.971,0.005,1.879,0.02,2.788-0.009c1.491-0.04,3.007-0.172,4.919-0.391
				c1.033-0.11,3.119-0.328,5.623-0.166c2.5,0.142,5.404,0.717,7.914,1.866c2.542,1.091,4.609,2.773,5.976,4.153
				c0.652,0.718,1.15,1.34,1.518,1.755c0.193,0.202,0.295,0.394,0.378,0.515c0.08,0.123,0.122,0.189,0.122,0.189
				s0.169,0.261,0.471,0.724c0.143,0.236,0.353,0.503,0.532,0.846c0.168,0.349,0.359,0.744,0.569,1.178
				c0.806,1.737,1.639,4.265,1.738,7.047c0.15,2.77-0.324,5.7-1.076,8.073c-0.09,0.298-0.177,0.59-0.262,0.874
				c-0.097,0.28-0.216,0.545-0.317,0.805c-0.209,0.519-0.404,1.004-0.581,1.445c-0.428,0.853-0.773,1.54-1.002,1.998
				c-0.501,0.801-0.877,1.562-1.258,2.254c-0.407,0.673-0.722,1.349-1.05,2.004c-0.352,0.635-0.667,1.293-0.988,2.005
				c-0.368,0.664-0.74,1.386-1.161,2.201c0.823-0.339,1.596-0.678,2.339-1.042c0.695-0.41,1.355-0.847,2.011-1.333
				c0.631-0.506,1.204-1.104,1.817-1.767c0.585-0.681,1.11-1.497,1.693-2.412c0.124-0.243,0.28-0.548,0.459-0.897
				c1.026,0.702,1.832,1.473,2.558,2.25c1.066,1.184,1.912,2.478,2.593,4.372C367.115,378.031,367.6,380.292,367.281,383.24z"/>
		</g>
		<g>
			<g>
				<path style="fill:#152345;" d="M169.266,262.982c0,0-1.82,1.042-4.43,2.8c-2.615,1.75-6.016,4.226-9.305,6.902
					c-6.639,5.309-12.554,11.576-13.225,12.136c-0.346,0.275-2.535,1.965-5.414,4.601c-2.885,2.626-6.453,6.218-9.609,10.123
					c-3.183,3.881-5.945,8.057-7.792,11.317c-0.454,0.821-0.871,1.572-1.239,2.237c-0.339,0.682-0.634,1.275-0.877,1.763
					c-0.484,0.981-0.76,1.54-0.76,1.54s0.191-0.538,0.53-1.49c0.17-0.477,0.376-1.057,0.614-1.724
					c0.266-0.657,0.568-1.4,0.898-2.214c1.341-3.249,3.434-7.533,6.036-11.713c2.58-4.193,5.636-8.277,8.326-11.457
					c2.693-3.178,4.946-5.518,5.829-6.369c0.869-0.868,3.064-2.718,5.964-4.844c2.9-2.128,6.528-4.491,10.126-6.574
					c3.592-2.095,7.164-3.891,9.847-5.122C167.466,263.654,169.266,262.982,169.266,262.982z"/>
			</g>
			<g>
				<path style="fill:#152345;" d="M166.732,256.387c0,0-2.089,0.185-5.195,0.689c-3.107,0.496-7.232,1.321-11.339,2.375
					c-8.251,2.043-16.246,5.26-17.09,5.487c-0.43,0.105-3.125,0.724-6.843,1.913c-3.719,1.178-8.463,2.947-12.964,5.173
					c-4.515,2.193-8.771,4.83-11.813,7.018c-0.756,0.555-1.448,1.063-2.061,1.513c-0.593,0.477-1.11,0.893-1.535,1.235
					c-0.851,0.688-1.335,1.081-1.335,1.081s0.399-0.409,1.104-1.131c0.354-0.362,0.784-0.802,1.279-1.309
					c0.517-0.485,1.102-1.034,1.742-1.635c2.578-2.389,6.271-5.404,10.384-8.112c4.098-2.728,8.583-5.159,12.357-6.921
					c3.776-1.759,6.801-2.942,7.96-3.345c1.153-0.424,3.92-1.186,7.444-1.903c3.524-0.719,7.809-1.347,11.948-1.733
					c4.139-0.4,8.135-0.535,11.087-0.531C164.815,256.244,166.732,256.387,166.732,256.387z"/>
			</g>
		</g>
		<g>
			<g>
				<path style="fill:#152345;" d="M220.205,263.436c0,0,1.947,0.709,4.823,2.013c2.879,1.295,6.675,3.192,10.415,5.344
					c3.747,2.138,7.421,4.548,10.207,6.553c2.791,1.998,4.692,3.58,5.002,3.922c0.302,0.349,2.313,2.412,4.893,5.528
					c2.588,3.106,5.727,7.277,8.381,11.664c2.685,4.369,4.876,8.922,6.266,12.399c0.339,0.872,0.649,1.67,0.924,2.377
					c0.243,0.717,0.455,1.342,0.629,1.856c0.345,1.026,0.541,1.61,0.541,1.61s-0.242-0.511-0.669-1.413
					c-0.213-0.45-0.473-0.998-0.771-1.629c-0.326-0.617-0.694-1.315-1.097-2.079c-1.63-3.044-4.081-7-6.993-10.785
					c-2.893-3.8-6.212-7.43-9.08-10.229c-2.873-2.797-5.225-4.831-6.13-5.588c-0.889-0.773-2.837-2.709-5.396-5.061
					c-2.557-2.352-5.755-5.085-8.968-7.587c-3.204-2.512-6.433-4.771-8.879-6.366C221.861,264.363,220.205,263.436,220.205,263.436z
					"/>
			</g>
			<g>
				<path style="fill:#152345;" d="M222.949,256.887c0,0,2.065-0.171,5.223-0.19c3.157-0.028,7.398,0.105,11.696,0.494
					c4.298,0.374,8.643,1.025,12.012,1.68c3.371,0.646,5.76,1.288,6.184,1.469c0.421,0.19,3.11,1.222,6.758,2.973
					c3.65,1.738,8.247,4.212,12.493,7.086c4.267,2.844,8.163,6.063,10.88,8.638c0.673,0.65,1.289,1.245,1.834,1.772
					c0.521,0.55,0.975,1.029,1.348,1.422c0.742,0.787,1.165,1.236,1.165,1.236s-0.434-0.363-1.199-1.004
					c-0.382-0.32-0.847-0.709-1.382-1.157c-0.554-0.424-1.18-0.904-1.867-1.429c-2.754-2.082-6.636-4.65-10.865-6.869
					c-4.217-2.241-8.751-4.149-12.527-5.49c-3.779-1.338-6.767-2.2-7.906-2.509c-1.131-0.33-3.711-1.273-7.019-2.338
					c-3.307-1.066-7.355-2.21-11.32-3.138c-3.962-0.941-7.839-1.641-10.728-2.065C224.84,257.035,222.949,256.887,222.949,256.887z"
					/>
			</g>
		</g>
	</g>
	<g>
		<path style="fill:#B1BEBE;" d="M373.734,444.644c0,0-11.713-53.282,35.91-71.778C409.644,372.866,409.395,427.721,373.734,444.644
			z"/>
		<path style="fill:#B1BEBE;" d="M381.603,453.807c0,0,16.717-34.561,51.101-24.057
			C432.704,429.749,408.688,459.973,381.603,453.807z"/>
	</g>
	<g>
		<path style="fill:#B1BEBE;" d="M126.266,444.644c0,0,11.713-53.282-35.91-71.778C90.356,372.866,90.605,427.721,126.266,444.644z"
			/>
		<path style="fill:#B1BEBE;" d="M118.397,453.807c0,0-16.717-34.561-51.101-24.057C67.296,429.749,91.312,459.973,118.397,453.807z
			"/>
	</g>
	<path style="fill:#E7AE5E;" d="M119.824,217.802c-1.555,14.46-12.585,15.775-12.585,15.775c10.28,1.595,12.585,14.18,12.585,14.18
		s2.304-12.584,12.584-14.18C132.408,233.577,121.419,232.691,119.824,217.802z"/>
</g>
</svg>
